# xmcd
#
# Track frame offsets: 
#        150
#        16445
#        35267
#        63685
#        79410
#        96077
#        110912
#        121942
#        138170
#        152907
#        169932
#        187920
#        211440
#        233077
#
# Disc length: 3310 seconds
#
# Revision: 2
# Processed by: cddbd v1.5.2PL0 Copyright (c) Steve Scherf et al.
# Submitted via: ExactAudioCopy v1.3
#
DISCID=c00cec0e
DTITLE=Bryan Adams - 18 'til I Die (Japan)
DYEAR=1996
DGENRE=Rock
TTITLE0=The Only Thing That Looks Good on Me Is You
TTITLE1=Do to You
TTITLE2=Let's Make a Night to Remember
TTITLE3=18 Til I Die
TTITLE4=Star
TTITLE5=(I Wanna Be) Your Underwear
TTITLE6=We're Gonna Win
TTITLE7=I Think About You
TTITLE8=I'll Always Be Right There
TTITLE9=It Ain't a Party...If You Can't Come 'Round
TTITLE10=Black Pearl
TTITLE11=You're Still Beautiful to Me
TTITLE12=Have You Ever Really Loved a Woman?
TTITLE13=Hey Elvis
EXTD=YEAR: 1996
EXTT0=
EXTT1=
EXTT2=
EXTT3=
EXTT4=
EXTT5=
EXTT6=
EXTT7=
EXTT8=
EXTT9=
EXTT10=
EXTT11=
EXTT12=
EXTT13=
PLAYORDER=
